<svg xmlns="http://www.w3.org/2000/svg" viewBox="0 0 512 512" width="512" height="512">
  <defs>
    <radialGradient id="bgGrad" cx="50%" cy="50%" r="50%">
      <stop offset="0%" stop-color="#121A2A"/>
      <stop offset="100%" stop-color="#0A0E17"/>
    </radialGradient>
    <linearGradient id="plantGrad" x1="0%" y1="100%" x2="100%" y2="0%">
      <stop offset="0%" stop-color="#10B981"/>
      <stop offset="50%" stop-color="#06B6D4"/>
      <stop offset="100%" stop-color="#A855F7"/>
    </linearGradient>
    <radialGradient id="glow" cx="50%" cy="50%" r="40%">
      <stop offset="0%" stop-color="#F59E0B" stop-opacity="0.8"/>
      <stop offset="100%" stop-color="#F59E0B" stop-opacity="0"/>
    </radialGradient>
  </defs>
  <!-- Background -->
  <rect width="100%" height="100%" fill="url(#bgGrad)"/>
  <!-- Glow behind plant -->
  <circle cx="256" cy="220" r="120" fill="url(#glow)"/>
  <!-- Plant structure -->
  <path d="M256,420 C256,330 200,280 200,220 C200,160 256,120 256,120 C256,120 312,160 312,220 C312,280 256,330 256,420 Z" fill="url(#plantGrad)"/>
  <!-- Leaves / petals -->
  <path d="M256,350 C220,320 160,320 140,270 C120,220 160,180 180,190 C200,200 220,250 256,350 Z" fill="#10B981" opacity="0.85"/>
  <path d="M256,350 C292,320 352,320 372,270 C392,220 352,180 332,190 C312,200 292,250 256,350 Z" fill="#06B6D4" opacity="0.85"/>
  <!-- Stars -->
  <path d="M256,80 L260,95 L275,95 L263,105 L267,120 L256,110 L245,120 L249,105 L237,95 L252,95 Z" fill="#F59E0B"/>
  <circle cx="150" cy="120" r="4" fill="#E0E7FF" opacity="0.6"/>
  <circle cx="362" cy="140" r="5" fill="#E0E7FF" opacity="0.8"/>
  <circle cx="120" cy="280" r="3" fill="#E0E7FF" opacity="0.5"/>
  <circle cx="400" cy="240" r="4" fill="#E0E7FF" opacity="0.7"/>
</svg>
